<mxfile host="app.diagrams.net" modified="2024-02-02T00:08:22.196Z" agent="Mozilla/5.0 (Windows NT 10.0; Win64; x64; rv:122.0) Gecko/20100101 Firefox/122.0" etag="GmWWDUZT5NJpA0ljWmDS" version="23.1.1" type="device">
  <diagram name="Page-1" id="bSgwV0y74Ab9i3TYpzd3">
    <mxGraphModel dx="2074" dy="1106" grid="1" gridSize="10" guides="1" tooltips="1" connect="1" arrows="1" fold="1" page="1" pageScale="1" pageWidth="850" pageHeight="1100" math="0" shadow="0">
      <root>
        <mxCell id="0" />
        <mxCell id="1" parent="0" />
        <mxCell id="6otbtctm64-bsFKl2SRl-1" value="&lt;div&gt;&lt;font color=&quot;#3333ff&quot;&gt;&lt;b&gt;User&lt;/b&gt;&lt;/font&gt;&lt;/div&gt;" style="shape=umlActor;verticalLabelPosition=bottom;verticalAlign=top;html=1;outlineConnect=0;strokeColor=#3333FF;strokeWidth=1;perimeterSpacing=1;" vertex="1" parent="1">
          <mxGeometry x="50" y="335" width="30" height="60" as="geometry" />
        </mxCell>
        <mxCell id="6otbtctm64-bsFKl2SRl-25" style="edgeStyle=orthogonalEdgeStyle;rounded=0;orthogonalLoop=1;jettySize=auto;html=1;strokeWidth=1;shape=flexArrow;fillColor=#f5f5f5;strokeColor=#666666;" edge="1" parent="1">
          <mxGeometry relative="1" as="geometry">
            <mxPoint x="142" y="366" as="sourcePoint" />
            <mxPoint x="475" y="366" as="targetPoint" />
          </mxGeometry>
        </mxCell>
        <mxCell id="6otbtctm64-bsFKl2SRl-26" value="&lt;font color=&quot;#3333ff&quot;&gt;&lt;b&gt;Save content loacly&lt;br&gt;&lt;/b&gt;&lt;/font&gt;" style="edgeLabel;html=1;align=center;verticalAlign=middle;resizable=0;points=[];" vertex="1" connectable="0" parent="6otbtctm64-bsFKl2SRl-25">
          <mxGeometry x="0.0216" relative="1" as="geometry">
            <mxPoint x="-26" y="-22" as="offset" />
          </mxGeometry>
        </mxCell>
        <mxCell id="6otbtctm64-bsFKl2SRl-27" value="" style="swimlane;startSize=0;fillColor=#ffe6cc;strokeColor=#d79b00;" vertex="1" parent="1">
          <mxGeometry x="534" y="265" width="110" height="200" as="geometry" />
        </mxCell>
        <mxCell id="6otbtctm64-bsFKl2SRl-28" value="&lt;font color=&quot;#3333ff&quot;&gt;&lt;b&gt;Device&lt;/b&gt;&lt;/font&gt;" style="text;html=1;align=center;verticalAlign=middle;resizable=0;points=[];autosize=1;strokeColor=none;fillColor=none;" vertex="1" parent="6otbtctm64-bsFKl2SRl-27">
          <mxGeometry x="25" y="85" width="60" height="30" as="geometry" />
        </mxCell>
      </root>
    </mxGraphModel>
  </diagram>
</mxfile>
